<svg xmlns="http://www.w3.org/2000/svg" xmlns:xlink="http://www.w3.org/1999/xlink"><symbol id="sprite-at" viewBox="0 0 512 512"><title>at</title><path d="M477.504 384C499.44 346.32 512 302.752 512 256 512 114.624 397.376 0 256 0S0 114.624 0 256s114.624 256 256 256c70.688 0 134.688-28.624 180.992-75.008L391.68 391.68C356.944 426.496 308.944 448 256 448c-105.872 0-192-86.128-192-192S150.128 64 256 64s192 86.128 192 192c0 22.752-4.368 44.496-11.68 64.752l-.512-.752H384V128.688H256c-70.688 0-128 57.312-128 128s57.312 128 128 128c29.376 0 56.128-10.32 77.744-26.944C345.376 373.248 363.12 384 384 384h93.504zM320 224.128v32.56c0 35.312-28.752 64-64 64s-64-28.688-64-64 28.752-64 64-64h64v31.44z"/></symbol><symbol id="sprite-envelope-o" viewBox="0 0 448 448"><title>envelope-o</title><path d="M416 360V168c-5.25 6-11 11.5-17.25 16.5C363 212 327 240 292.25 269c-18.75 15.75-42 35-68 35h-.5c-26 0-49.25-19.25-68-35C121 240 85 212 49.25 184.5 43 179.5 37.25 174 32 168v192c0 4.25 3.75 8 8 8h368c4.25 0 8-3.75 8-8zm0-262.75C416 91 417.5 80 408 80H40c-4.25 0-8 3.75-8 8 0 28.5 14.25 53.25 36.75 71 33.5 26.25 67 52.75 100.25 79.25C182.25 249 206.25 272 223.75 272h.5c17.5 0 41.5-23 54.75-33.75 33.25-26.5 66.75-53 100.25-79.25C395.5 146.25 416 118.5 416 97.25zM448 88v271.999c0 22-18 40-40 40H40c-22 0-40-18-40-40V88c0-22 18-40 40-40h368c22 0 40 18 40 40z"/></symbol><symbol id="sprite-instagram" viewBox="0 0 448 448"><title>instagram</title><path d="M298.661 224c0-41.121-33.539-74.661-74.661-74.661S149.339 182.878 149.339 224s33.539 74.661 74.661 74.661 74.661-33.539 74.661-74.661zm40.246 0c0 63.578-51.329 114.907-114.907 114.907S109.093 287.578 109.093 224 160.422 109.093 224 109.093 338.907 160.422 338.907 224zm31.498-119.574c0 14.874-11.958 26.831-26.831 26.831s-26.831-11.958-26.831-26.831 11.958-26.831 26.831-26.831 26.831 11.958 26.831 26.831zM224 40.265c-32.664 0-102.659-2.625-132.114 9.041-10.207 4.083-17.79 9.041-25.665 16.915S53.389 81.678 49.306 91.886C37.64 121.342 40.265 191.336 40.265 224s-2.625 102.659 9.041 132.114c4.083 10.207 9.041 17.79 16.916 25.665s15.457 12.832 25.665 16.915c29.456 11.666 99.45 9.041 132.114 9.041s102.659 2.625 132.114-9.041c10.207-4.083 17.79-9.041 25.665-16.915s12.832-15.457 16.915-25.665c11.666-29.456 9.041-99.45 9.041-132.114s2.625-102.659-9.041-132.114c-4.083-10.207-9.041-17.79-16.915-25.665s-15.457-12.832-25.665-16.915c-29.456-11.666-99.45-9.041-132.114-9.041zM447.982 224c0 30.914.291 61.537-1.458 92.451-1.75 35.872-9.916 67.661-36.164 93.909s-58.037 34.414-93.909 36.164c-30.914 1.75-61.537 1.458-92.451 1.458s-61.537.291-92.451-1.458c-35.872-1.75-67.661-9.916-93.909-36.164S3.226 352.323 1.476 316.451C-.274 285.537.018 254.914.018 224s-.291-61.537 1.458-92.451c1.75-35.872 9.916-67.661 36.164-93.909S95.677 3.226 131.549 1.476C162.463-.274 193.086.018 224 .018s61.537-.291 92.451 1.458c35.872 1.75 67.661 9.916 93.909 36.164s34.414 58.037 36.164 93.909c1.75 30.914 1.458 61.537 1.458 92.451z"/></symbol><symbol class="ldi-47ibm8" preserveAspectRatio="xMidYMid" style="width:525px;webkit-user-select:none;webkit-transform-origin:262.5px 262.5px;webkit-perspective-origin:262.5px 262.5px;webkit-logical-width:525px;webkit-logical-height:525px;user-select:none;transform-origin:262.5px 262.5px;r:0;perspective-origin:262.5px 262.5px;overflow-y:hidden;overflow-x:hidden;inline-size:525px;height:525px;d:none;block-size:525px;background:0 0/auto padding-box border-box" pointer-events="all" overflow="hidden" display="block" id="sprite-ok" viewBox="0 0 100 100"><title>ok</title><svg version="1.1" id="圖層_1" xmlns="http://www.w3.org/2000/svg" x="0" y="0" viewBox="0 0 100 100" xml:space="preserve" style="x:0;webkit-user-select:none;webkit-transform-origin:50px 50px;webkit-perspective-origin:0 0;user-select:none;transform-origin:50px 50px;r:0;perspective-origin:0 0;overflow-y:hidden;overflow-x:hidden" pointer-events="all" overflow="hidden" display="block"><g style="x:0;webkit-user-select:none;webkit-transform-origin:50px 50px;webkit-perspective-origin:0 0;user-select:none;transform-origin:50px 50px;r:0;perspective-origin:0 0"><g style="x:0;webkit-user-select:none;webkit-transform-origin:50px 50px;webkit-transform:matrix(.7,0,0,.7,0,0);webkit-perspective-origin:0 0;user-select:none;transform-origin:50px 50px;r:0;perspective-origin:0 0"><g style="x:0;webkit-user-select:none;webkit-transform-origin:50px 50px;webkit-perspective-origin:0 0;user-select:none;transform-origin:50px 50px;r:0;perspective-origin:0 0"><g style="webkit-user-select:none;webkit-perspective-origin:0 0;user-select:none;perspective-origin:0 0" transform="scale(.7)"><style/><g style="y:0;x:0;webkit-user-select:none;webkit-transform-origin:50px 50px;webkit-perspective-origin:0 0;webkit-animation-duration:2.2s;webkit-animation-delay:.169231s;webkit-animation:2.2s ease .169231s 1 normal none running none;user-select:none;transform-origin:50px 50px;r:0;perspective-origin:0 0;d:none"><circle cx="50" cy="50" r="40" stroke="#3c3" style="webkit-user-select:none;webkit-perspective-origin:0 0;user-select:none;r:40px;perspective-origin:0 0;cy:50px;cx:50px" stroke-width="8" stroke-miterlimit="10" fill="none"/></g><g style="x:0;webkit-user-select:none;webkit-transform-origin:50px 50px;webkit-perspective-origin:0 0;user-select:none;transform-origin:50px 50px;r:0;perspective-origin:0 0"><g style="webkit-user-select:none;webkit-perspective-origin:0 0;user-select:none;perspective-origin:0 0"><g style="y:0;x:0;webkit-user-select:none;webkit-transform-origin:50px 50px;webkit-perspective-origin:0 0;webkit-animation-duration:2.2s;webkit-animation-delay:.338462s;webkit-animation:2.2s ease .338462s 1 normal none running none;user-select:none;transform-origin:50px 50px;r:0;perspective-origin:0 0;d:none" class="ld"><path fill="#3c3" style="webkit-user-select:none;webkit-perspective-origin:0 0;user-select:none;r:0;perspective-origin:0 0" d="M43.7 69.4L25 47.7l3.9-3.9 14.8 12.6 28.6-25.8 2.7 2.7z"/></g></g></g></g></g></g></g><style>@keyframes ldt-bounce-in{0%{-webkit-transform:scale(0);transform:scale(0)}5%{-webkit-transform:scale(.0846);transform:scale(.0846)}6%{-webkit-transform:scale(.191);transform:scale(.191)}7%{-webkit-transform:scale(.3255);transform:scale(.3255)}8%{-webkit-transform:scale(.4804);transform:scale(.4804)}9%{-webkit-transform:scale(.646);transform:scale(.646)}10%{-webkit-transform:scale(.8116);transform:scale(.8116)}11%{-webkit-transform:scale(.9665);transform:scale(.9665)}12%{-webkit-transform:scale(1.1);transform:scale(1.1)}13%{-webkit-transform:scale(1.2069);transform:scale(1.2069)}14%{-webkit-transform:scale(1.2796);transform:scale(1.2796)}19%{-webkit-transform:scale(1.1558);transform:scale(1.1558)}20%{-webkit-transform:scale(1.07);transform:scale(1.07)}21%{-webkit-transform:scale(.9823);transform:scale(.9823)}22%{-webkit-transform:scale(.901);transform:scale(.901)}23%{-webkit-transform:scale(.8328);transform:scale(.8328)}25%{-webkit-transform:scale(.7551);transform:scale(.7551)}29%{-webkit-transform:scale(.8516);transform:scale(.8516)}31%{-webkit-transform:scale(.973);transform:scale(.973)}33%{-webkit-transform:scale(1.0857);transform:scale(1.0857)}35%{-webkit-transform:scale(1.1538);transform:scale(1.1538)}40%{-webkit-transform:scale(1.0771);transform:scale(1.0771)}42%{-webkit-transform:scale(.9954);transform:scale(.9954)}45%{-webkit-transform:scale(.9057);transform:scale(.9057)}52%{-webkit-transform:scale(.9908);transform:scale(.9908)}56%{-webkit-transform:scale(1.0623);transform:scale(1.0623)}64%{-webkit-transform:scale(.9845);transform:scale(.9845)}}@-webkit-keyframes ldt-bounce-in{0%{-webkit-transform:scale(0);transform:scale(0)}5%{-webkit-transform:scale(.0846);transform:scale(.0846)}6%{-webkit-transform:scale(.191);transform:scale(.191)}7%{-webkit-transform:scale(.3255);transform:scale(.3255)}8%{-webkit-transform:scale(.4804);transform:scale(.4804)}9%{-webkit-transform:scale(.646);transform:scale(.646)}10%{-webkit-transform:scale(.8116);transform:scale(.8116)}11%{-webkit-transform:scale(.9665);transform:scale(.9665)}12%{-webkit-transform:scale(1.1);transform:scale(1.1)}13%{-webkit-transform:scale(1.2069);transform:scale(1.2069)}14%{-webkit-transform:scale(1.2796);transform:scale(1.2796)}19%{-webkit-transform:scale(1.1558);transform:scale(1.1558)}20%{-webkit-transform:scale(1.07);transform:scale(1.07)}21%{-webkit-transform:scale(.9823);transform:scale(.9823)}22%{-webkit-transform:scale(.901);transform:scale(.901)}23%{-webkit-transform:scale(.8328);transform:scale(.8328)}25%{-webkit-transform:scale(.7551);transform:scale(.7551)}29%{-webkit-transform:scale(.8516);transform:scale(.8516)}31%{-webkit-transform:scale(.973);transform:scale(.973)}33%{-webkit-transform:scale(1.0857);transform:scale(1.0857)}35%{-webkit-transform:scale(1.1538);transform:scale(1.1538)}40%{-webkit-transform:scale(1.0771);transform:scale(1.0771)}42%{-webkit-transform:scale(.9954);transform:scale(.9954)}45%{-webkit-transform:scale(.9057);transform:scale(.9057)}52%{-webkit-transform:scale(.9908);transform:scale(.9908)}56%{-webkit-transform:scale(1.0623);transform:scale(1.0623)}64%{-webkit-transform:scale(.9845);transform:scale(.9845)}}</style></svg></symbol><symbol id="sprite-phone" viewBox="0 0 448 448"><title>phone</title><path d="M448 353.818c0 11.454-5.091 33.727-9.863 44.227-6.682 15.591-24.5 25.773-38.818 33.727-18.773 10.182-37.863 16.227-59.182 16.227-29.591 0-56.318-12.091-83.363-21.955-19.409-7-38.181-15.591-55.682-26.409-54.091-33.409-119.318-98.637-152.727-152.727-10.819-17.5-19.409-36.273-26.409-55.682C12.093 164.181.001 137.454.001 107.863c0-21.319 6.045-40.409 16.227-59.182 7.955-14.318 18.136-32.136 33.727-38.818C60.455 5.09 82.728 0 94.182 0c2.227 0 4.455 0 6.682.954 6.682 2.227 13.682 17.818 16.864 24.182 10.182 18.136 20.045 36.591 30.545 54.409 5.091 8.273 14.637 18.455 14.637 28.318 0 19.409-57.591 47.727-57.591 64.909 0 8.591 7.955 19.727 12.409 27.364 32.136 57.909 72.227 98 130.136 130.136 7.636 4.455 18.773 12.409 27.364 12.409 17.182 0 45.5-57.591 64.909-57.591 9.863 0 20.045 9.545 28.318 14.637 17.818 10.5 36.273 20.363 54.409 30.545 6.364 3.182 21.955 10.182 24.182 16.864.954 2.227.954 4.455.954 6.682z"/></symbol><symbol id="sprite-telegram" viewBox="0 0 448 448"><title>telegram</title><path d="M297.25 326.75L334 153.5c3.25-15.25-5.5-21.25-15.5-17.5l-216 83.25C87.75 225 88 233.25 100 237l55.25 17.25L283.5 173.5c6-4 11.5-1.75 7 2.25L186.75 269.5l-4 57c5.75 0 8.25-2.5 11.25-5.5l27-26 56 41.25c10.25 5.75 17.5 2.75 20.25-9.5zM448 224c0 123.75-100.25 224-224 224S0 347.75 0 224 100.25 0 224 0s224 100.25 224 224z"/></symbol></svg>