<!-- Generated by IcoMoon.io -->
<svg version="1.1" xmlns="http://www.w3.org/2000/svg" width="512" height="512" viewBox="0 0 512 512">
<g id="icomoon-ignore">
</g>
<path fill="#000" d="M477.504 384c21.936-37.68 34.496-81.248 34.496-128 0-141.376-114.624-256-256-256s-256 114.624-256 256 114.624 256 256 256c70.688 0 134.688-28.624 180.992-75.008l-45.312-45.312c-34.736 34.816-82.736 56.32-135.68 56.32-105.872 0-192-86.128-192-192s86.128-192 192-192 192 86.128 192 192c0 22.752-4.368 44.496-11.68 64.752l-0.512-0.752h-51.808v-191.312h-128c-70.688 0-128 57.312-128 128s57.312 128 128 128c29.376 0 56.128-10.32 77.744-26.944 11.632 15.504 29.376 26.256 50.256 26.256h93.504zM320 224.128v32.56c0 35.312-28.752 64-64 64s-64-28.688-64-64 28.752-64 64-64h64v31.44z"></path>
</svg>
