<!-- Generated by IcoMoon.io -->
<svg version="1.1" xmlns="http://www.w3.org/2000/svg" width="448" height="448" viewBox="0 0 448 448">
<g id="icomoon-ignore">
</g>
<path fill="#000" d="M298.661 224c0-41.121-33.539-74.661-74.661-74.661s-74.661 33.539-74.661 74.661 33.539 74.661 74.661 74.661 74.661-33.539 74.661-74.661zM338.907 224c0 63.578-51.329 114.907-114.907 114.907s-114.907-51.329-114.907-114.907 51.329-114.907 114.907-114.907 114.907 51.329 114.907 114.907zM370.405 104.426c0 14.874-11.958 26.831-26.831 26.831s-26.831-11.958-26.831-26.831 11.958-26.831 26.831-26.831 26.831 11.958 26.831 26.831zM224 40.265c-32.664 0-102.659-2.625-132.114 9.041-10.207 4.083-17.79 9.041-25.665 16.915s-12.832 15.457-16.915 25.665c-11.666 29.456-9.041 99.45-9.041 132.114s-2.625 102.659 9.041 132.114c4.083 10.207 9.041 17.79 16.916 25.665s15.457 12.832 25.665 16.915c29.456 11.666 99.45 9.041 132.114 9.041s102.659 2.625 132.114-9.041c10.207-4.083 17.79-9.041 25.665-16.915s12.832-15.457 16.915-25.665c11.666-29.456 9.041-99.45 9.041-132.114s2.625-102.659-9.041-132.114c-4.083-10.207-9.041-17.79-16.915-25.665s-15.457-12.832-25.665-16.915c-29.456-11.666-99.45-9.041-132.114-9.041zM447.982 224c0 30.914 0.291 61.537-1.458 92.451-1.75 35.872-9.916 67.661-36.164 93.909s-58.037 34.414-93.909 36.164c-30.914 1.75-61.537 1.458-92.451 1.458s-61.537 0.291-92.451-1.458c-35.872-1.75-67.661-9.916-93.909-36.164s-34.414-58.037-36.164-93.909c-1.75-30.914-1.458-61.537-1.458-92.451s-0.291-61.537 1.458-92.451c1.75-35.872 9.916-67.661 36.164-93.909s58.037-34.414 93.909-36.164c30.914-1.75 61.537-1.458 92.451-1.458s61.537-0.291 92.451 1.458c35.872 1.75 67.661 9.916 93.909 36.164s34.414 58.037 36.164 93.909c1.75 30.914 1.458 61.537 1.458 92.451z"></path>
</svg>
