<!-- Generated by IcoMoon.io -->
<svg version="1.1" xmlns="http://www.w3.org/2000/svg" width="448" height="448" viewBox="0 0 448 448">
<g id="icomoon-ignore">
</g>
<path fill="#000" d="M448 353.818c0 11.454-5.091 33.727-9.863 44.227-6.682 15.591-24.5 25.773-38.818 33.727-18.773 10.182-37.863 16.227-59.182 16.227-29.591 0-56.318-12.091-83.363-21.955-19.409-7-38.181-15.591-55.682-26.409-54.091-33.409-119.318-98.637-152.727-152.727-10.819-17.5-19.409-36.273-26.409-55.682-9.863-27.045-21.955-53.772-21.955-83.363 0-21.319 6.045-40.409 16.227-59.182 7.955-14.318 18.136-32.136 33.727-38.818 10.5-4.773 32.773-9.863 44.227-9.863 2.227 0 4.455 0 6.682 0.954 6.682 2.227 13.682 17.818 16.864 24.182 10.182 18.136 20.045 36.591 30.545 54.409 5.091 8.273 14.637 18.455 14.637 28.318 0 19.409-57.591 47.727-57.591 64.909 0 8.591 7.955 19.727 12.409 27.364 32.136 57.909 72.227 98 130.136 130.136 7.636 4.455 18.773 12.409 27.364 12.409 17.182 0 45.5-57.591 64.909-57.591 9.863 0 20.045 9.545 28.318 14.637 17.818 10.5 36.273 20.363 54.409 30.545 6.364 3.182 21.955 10.182 24.182 16.864 0.954 2.227 0.954 4.455 0.954 6.682z"></path>
</svg>
